<?xml version="1.0" encoding="UTF-8" standalone="no"?>
<svg
   xmlns:dc="http://purl.org/dc/elements/1.1/"
   xmlns:cc="http://creativecommons.org/ns#"
   xmlns:rdf="http://www.w3.org/1999/02/22-rdf-syntax-ns#"
   xmlns:svg="http://www.w3.org/2000/svg"
   xmlns="http://www.w3.org/2000/svg"
   xmlns:sodipodi="http://sodipodi.sourceforge.net/DTD/sodipodi-0.dtd"
   xmlns:inkscape="http://www.inkscape.org/namespaces/inkscape"
   viewBox="0 0 1600 900"
   id="svg3408"
   version="1.1"
   inkscape:version="0.91 r13725"
   sodipodi:docname="Flat-Mountains2.svg">
  <metadata
     id="metadata3440">
    <rdf:RDF>
      <cc:Work
         rdf:about="">
        <dc:format>image/svg+xml</dc:format>
        <dc:type
           rdf:resource="http://purl.org/dc/dcmitype/StillImage" />
        <dc:title></dc:title>
      </cc:Work>
    </rdf:RDF>
  </metadata>
  <defs
     id="defs3438" />
  <sodipodi:namedview
     pagecolor="#ffffff"
     bordercolor="#666666"
     borderopacity="1"
     objecttolerance="10"
     gridtolerance="10"
     guidetolerance="10"
     inkscape:pageopacity="0"
     inkscape:pageshadow="2"
     inkscape:window-width="2560"
     inkscape:window-height="1373"
     id="namedview3436"
     showgrid="false"
     inkscape:zoom="0.6925"
     inkscape:cx="800"
     inkscape:cy="450"
     inkscape:window-x="0"
     inkscape:window-y="30"
     inkscape:window-maximized="0"
     inkscape:current-layer="svg3408" />
  <rect
     fill="#ff7700"
     width="1600"
     height="900"
     id="rect3410" />
  <polygon
     fill="#cc0000"
     points="957 450 539 900 1396 900"
     id="polygon3412" />
  <polygon
     fill="#aa0000"
     points="957 450 872.9 900 1396 900"
     id="polygon3414" />
  <polygon
     fill="#d6002b"
     points="-60 900 398 662 816 900"
     id="polygon3416" />
  <polygon
     fill="#b10022"
     points="337 900 398 662 816 900"
     id="polygon3418" />
  <polygon
     fill="#d9004b"
     points="1203 546 1552 900 876 900"
     id="polygon3420" />
  <polygon
     fill="#b2003d"
     points="1203 546 1552 900 1162 900"
     id="polygon3422" />
  <polygon
     fill="#d3006c"
     points="641 695 886 900 367 900"
     id="polygon3424" />
  <polygon
     fill="#ac0057"
     points="587 900 641 695 886 900"
     id="polygon3426" />
  <polygon
     fill="#c4008c"
     points="1710 900 1401 632 1096 900"
     id="polygon3428" />
  <polygon
     fill="#9e0071"
     points="1710 900 1401 632 1365 900"
     id="polygon3430" />
  <polygon
     fill="#aa00aa"
     points="1210 900 971 687 725 900"
     id="polygon3432" />
  <polygon
     fill="#880088"
     points="943 900 1210 900 971 687"
     id="polygon3434" />
  <path
     style="fill:#000000"
     d="m 0.86642599,434.11552 0,-433.21299292 799.27797401,0 799.278,0 0,400.84247292 0,400.84245 -3.4763,-2.64751 c -1.9119,-1.45614 -46.1279,-39.68723 -98.2579,-84.95799 -52.1299,-45.27076 -95.38,-82.51935 -96.1112,-82.77464 -0.7313,-0.2553 -14.7812,11.41527 -31.2221,25.9346 l -29.8925,26.39875 -68.715,-69.73064 -68.7149,-69.73066 -36.72,39.85933 c -20.1959,21.92262 -37.1857,39.6814 -37.7551,39.46392 -0.5693,-0.21745 -39.2212,-39.56661 -85.8931,-87.44254 -46.6719,-47.87593 -85.32938,-86.8651 -85.90553,-86.6426 -0.57614,0.2225 -60.63301,64.55759 -133.45969,142.96688 L 690.88693,735.84666 668.98137,717.60084 C 656.93331,707.56563 645.77617,698.203 644.18773,696.795 c -2.81612,-2.49621 -3.87671,-1.82472 -42.56113,26.94705 -21.82017,16.22887 -40.215,29.50705 -40.87742,29.50705 -0.66241,0 -37.14843,-20.46932 -81.08005,-45.48737 -43.93163,-25.01805 -80.62861,-45.48736 -81.54886,-45.48736 -0.92024,0 -90.44849,46.13718 -198.95165,102.52707 C 90.66546,821.19134 1.6598105,867.32852 1.3782869,867.32852 c -0.2815234,0 -0.51186091,-194.94585 -0.51186091,-433.213 z"
     id="path3442"
     inkscape:connector-curvature="0" />
</svg>
